<svg width="110" height="34" viewBox="0 0 110 34" fill="none" xmlns="http://www.w3.org/2000/svg">
<path d="M48.112 26L42.016 18.536V26H38.656V9.248H42.016V16.76L48.112 9.248H52.168L45.256 17.552L52.36 26H48.112ZM60.4741 26.216C59.1941 26.216 58.0421 25.936 57.0181 25.376C55.9941 24.8 55.1861 23.992 54.5941 22.952C54.0181 21.912 53.7301 20.712 53.7301 19.352C53.7301 17.992 54.0261 16.792 54.6181 15.752C55.2261 14.712 56.0501 13.912 57.0901 13.352C58.1301 12.776 59.2901 12.488 60.5701 12.488C61.8501 12.488 63.0101 12.776 64.0501 13.352C65.0901 13.912 65.9061 14.712 66.4981 15.752C67.1061 16.792 67.4101 17.992 67.4101 19.352C67.4101 20.712 67.0981 21.912 66.4741 22.952C65.8661 23.992 65.0341 24.8 63.9781 25.376C62.9381 25.936 61.7701 26.216 60.4741 26.216ZM60.4741 23.288C61.0821 23.288 61.6501 23.144 62.1781 22.856C62.7221 22.552 63.1541 22.104 63.4741 21.512C63.7941 20.92 63.9541 20.2 63.9541 19.352C63.9541 18.088 63.6181 17.12 62.9461 16.448C62.2901 15.76 61.4821 15.416 60.5221 15.416C59.5621 15.416 58.7541 15.76 58.0981 16.448C57.4581 17.12 57.1381 18.088 57.1381 19.352C57.1381 20.616 57.4501 21.592 58.0741 22.28C58.7141 22.952 59.5141 23.288 60.4741 23.288ZM77.2428 12.512C78.8268 12.512 80.1068 13.016 81.0828 14.024C82.0588 15.016 82.5468 16.408 82.5468 18.2V26H79.1868V18.656C79.1868 17.6 78.9228 16.792 78.3948 16.232C77.8668 15.656 77.1468 15.368 76.2348 15.368C75.3068 15.368 74.5708 15.656 74.0268 16.232C73.4988 16.792 73.2348 17.6 73.2348 18.656V26H69.8748V12.704H73.2348V14.36C73.6828 13.784 74.2508 13.336 74.9388 13.016C75.6428 12.68 76.4108 12.512 77.2428 12.512ZM89.6539 15.464V21.896C89.6539 22.344 89.7579 22.672 89.9659 22.88C90.1899 23.072 90.5579 23.168 91.0699 23.168H92.6299V26H90.5179C87.6859 26 86.2699 24.624 86.2699 21.872V15.464H84.6859V12.704H86.2699V9.416H89.6539V12.704H92.6299V15.464H89.6539ZM98.4066 14.768C98.8386 14.064 99.3986 13.512 100.087 13.112C100.791 12.712 101.591 12.512 102.487 12.512V16.04H101.599C100.543 16.04 99.7426 16.288 99.1986 16.784C98.6706 17.28 98.4066 18.144 98.4066 19.376V26H95.0466V12.704H98.4066V14.768ZM106.454 11.12C105.862 11.12 105.366 10.936 104.966 10.568C104.582 10.184 104.39 9.712 104.39 9.152C104.39 8.592 104.582 8.128 104.966 7.76C105.366 7.376 105.862 7.184 106.454 7.184C107.046 7.184 107.534 7.376 107.918 7.76C108.318 8.128 108.518 8.592 108.518 9.152C108.518 9.712 108.318 10.184 107.918 10.568C107.534 10.936 107.046 11.12 106.454 11.12ZM108.11 12.704V26H104.75V12.704H108.11Z" fill="#2B2B39"/>
<rect y="0.659912" width="33" height="33" rx="16.5" fill="#0D0E38"/>
<path d="M14.1016 25H11.2988V10.9961H14.1016V17.998L19.3164 10.9961H22.5L18.0762 16.9043L22.5 25H19.3164L16.2402 19.3359L14.1016 22.1973V25Z" fill="#217BF4"/>
<path d="M14.1016 25V26H15.1016V25H14.1016ZM11.2988 25H10.2988V26H11.2988V25ZM11.2988 10.9961V9.99609H10.2988V10.9961H11.2988ZM14.1016 10.9961H15.1016V9.99609H14.1016V10.9961ZM14.1016 17.998H13.1016V21.0149L14.9036 18.5954L14.1016 17.998ZM19.3164 10.9961V9.99609H18.8143L18.5144 10.3988L19.3164 10.9961ZM22.5 10.9961L23.3005 11.5955L24.498 9.99609H22.5V10.9961ZM18.0762 16.9043L17.2757 16.3049L16.8903 16.8196L17.1986 17.3838L18.0762 16.9043ZM22.5 25V26H24.186L23.3775 24.5205L22.5 25ZM19.3164 25L18.4376 25.4773L18.7215 26H19.3164V25ZM16.2402 19.3359L17.119 18.8587L16.3739 17.4868L15.4393 18.7373L16.2402 19.3359ZM14.1016 22.1973L13.3006 21.5986L13.1016 21.8648V22.1973H14.1016ZM14.1016 24H11.2988V26H14.1016V24ZM12.2988 25V10.9961H10.2988V25H12.2988ZM11.2988 11.9961H14.1016V9.99609H11.2988V11.9961ZM13.1016 10.9961V17.998H15.1016V10.9961H13.1016ZM14.9036 18.5954L20.1184 11.5934L18.5144 10.3988L13.2996 17.4007L14.9036 18.5954ZM19.3164 11.9961H22.5V9.99609H19.3164V11.9961ZM21.6995 10.3967L17.2757 16.3049L18.8766 17.5037L23.3005 11.5955L21.6995 10.3967ZM17.1986 17.3838L21.6225 25.4795L23.3775 24.5205L18.9537 16.4248L17.1986 17.3838ZM22.5 24H19.3164V26H22.5V24ZM20.1952 24.5227L17.119 18.8587L15.3615 19.8132L18.4376 25.4773L20.1952 24.5227ZM15.4393 18.7373L13.3006 21.5986L14.9025 22.796L17.0412 19.9346L15.4393 18.7373ZM13.1016 22.1973V25H15.1016V22.1973H13.1016Z" fill="white"/>
</svg>
