<svg width="110" height="33" viewBox="0 0 110 33" fill="none" xmlns="http://www.w3.org/2000/svg">
<path d="M48.112 25.3401L42.016 17.8761V25.3401H38.656V8.58809H42.016V16.1001L48.112 8.58809H52.168L45.256 16.8921L52.36 25.3401H48.112ZM60.4741 25.5561C59.1941 25.5561 58.0421 25.2761 57.0181 24.7161C55.9941 24.1401 55.1861 23.3321 54.5941 22.2921C54.0181 21.2521 53.7301 20.0521 53.7301 18.6921C53.7301 17.3321 54.0261 16.1321 54.6181 15.0921C55.2261 14.0521 56.0501 13.2521 57.0901 12.6921C58.1301 12.1161 59.2901 11.8281 60.5701 11.8281C61.8501 11.8281 63.0101 12.1161 64.0501 12.6921C65.0901 13.2521 65.9061 14.0521 66.4981 15.0921C67.1061 16.1321 67.4101 17.3321 67.4101 18.6921C67.4101 20.0521 67.0981 21.2521 66.4741 22.2921C65.8661 23.3321 65.0341 24.1401 63.9781 24.7161C62.9381 25.2761 61.7701 25.5561 60.4741 25.5561ZM60.4741 22.6281C61.0821 22.6281 61.6501 22.4841 62.1781 22.1961C62.7221 21.8921 63.1541 21.4441 63.4741 20.8521C63.7941 20.2601 63.9541 19.5401 63.9541 18.6921C63.9541 17.4281 63.6181 16.4601 62.9461 15.7881C62.2901 15.1001 61.4821 14.7561 60.5221 14.7561C59.5621 14.7561 58.7541 15.1001 58.0981 15.7881C57.4581 16.4601 57.1381 17.4281 57.1381 18.6921C57.1381 19.9561 57.4501 20.9321 58.0741 21.6201C58.7141 22.2921 59.5141 22.6281 60.4741 22.6281ZM77.2428 11.8521C78.8268 11.8521 80.1068 12.3561 81.0828 13.3641C82.0588 14.3561 82.5468 15.7481 82.5468 17.5401V25.3401H79.1868V17.9961C79.1868 16.9401 78.9228 16.1321 78.3948 15.5721C77.8668 14.9961 77.1468 14.7081 76.2348 14.7081C75.3068 14.7081 74.5708 14.9961 74.0268 15.5721C73.4988 16.1321 73.2348 16.9401 73.2348 17.9961V25.3401H69.8748V12.0441H73.2348V13.7001C73.6828 13.1241 74.2508 12.6761 74.9388 12.3561C75.6428 12.0201 76.4108 11.8521 77.2428 11.8521ZM89.6539 14.8041V21.2361C89.6539 21.6841 89.7579 22.0121 89.9659 22.2201C90.1899 22.4121 90.5579 22.5081 91.0699 22.5081H92.6299V25.3401H90.5179C87.6859 25.3401 86.2699 23.9641 86.2699 21.2121V14.8041H84.6859V12.0441H86.2699V8.75609H89.6539V12.0441H92.6299V14.8041H89.6539ZM98.4066 14.1081C98.8386 13.4041 99.3986 12.8521 100.087 12.4521C100.791 12.0521 101.591 11.8521 102.487 11.8521V15.3801H101.599C100.543 15.3801 99.7426 15.6281 99.1986 16.1241C98.6706 16.6201 98.4066 17.4841 98.4066 18.7161V25.3401H95.0466V12.0441H98.4066V14.1081ZM106.454 10.4601C105.862 10.4601 105.366 10.2761 104.966 9.90809C104.582 9.52409 104.39 9.05209 104.39 8.49209C104.39 7.93209 104.582 7.46809 104.966 7.10009C105.366 6.71609 105.862 6.52409 106.454 6.52409C107.046 6.52409 107.534 6.71609 107.918 7.10009C108.318 7.46809 108.518 7.93209 108.518 8.49209C108.518 9.05209 108.318 9.52409 107.918 9.90809C107.534 10.2761 107.046 10.4601 106.454 10.4601ZM108.11 12.0441V25.3401H104.75V12.0441H108.11Z" fill="white"/>
<rect width="33" height="33" rx="16.5" fill="#0D0E38"/>
<path d="M14.1017 24.34H11.299V10.3361H14.1017V17.338L19.3165 10.3361H22.5001L18.0763 16.2443L22.5001 24.34H19.3165L16.2404 18.6759L14.1017 21.5372V24.34Z" fill="#217BF4"/>
<path d="M14.1017 24.34V25.34H15.1017V24.34H14.1017ZM11.299 24.34H10.299V25.34H11.299V24.34ZM11.299 10.3361V9.33606H10.299V10.3361H11.299ZM14.1017 10.3361H15.1017V9.33606H14.1017V10.3361ZM14.1017 17.338H13.1017V20.3549L14.9037 17.9353L14.1017 17.338ZM19.3165 10.3361V9.33606H18.8144L18.5145 9.73875L19.3165 10.3361ZM22.5001 10.3361L23.3006 10.9354L24.4981 9.33606H22.5001V10.3361ZM18.0763 16.2443L17.2758 15.6449L16.8905 16.1596L17.1988 16.7238L18.0763 16.2443ZM22.5001 24.34V25.34H24.1861L23.3777 23.8604L22.5001 24.34ZM19.3165 24.34L18.4378 24.8172L18.7217 25.34H19.3165V24.34ZM16.2404 18.6759L17.1191 18.1986L16.374 16.8267L15.4394 18.0772L16.2404 18.6759ZM14.1017 21.5372L13.3007 20.9385L13.1017 21.2048V21.5372H14.1017ZM14.1017 23.34H11.299V25.34H14.1017V23.34ZM12.299 24.34V10.3361H10.299V24.34H12.299ZM11.299 11.3361H14.1017V9.33606H11.299V11.3361ZM13.1017 10.3361V17.338H15.1017V10.3361H13.1017ZM14.9037 17.9353L20.1185 10.9334L18.5145 9.73875L13.2997 16.7407L14.9037 17.9353ZM19.3165 11.3361H22.5001V9.33606H19.3165V11.3361ZM21.6996 9.73669L17.2758 15.6449L18.8768 16.8436L23.3006 10.9354L21.6996 9.73669ZM17.1988 16.7238L21.6226 24.8195L23.3777 23.8604L18.9538 15.7647L17.1988 16.7238ZM22.5001 23.34H19.3165V25.34H22.5001V23.34ZM20.1953 23.8627L17.1191 18.1986L15.3616 19.1532L18.4378 24.8172L20.1953 23.8627ZM15.4394 18.0772L13.3007 20.9385L14.9027 22.1359L17.0413 19.2746L15.4394 18.0772ZM13.1017 21.5372V24.34H15.1017V21.5372H13.1017Z" fill="white"/>
</svg>
